<svg xmlns="http://www.w3.org/2000/svg" version="1.1" xmlns:xlink="http://www.w3.org/1999/xlink" width="1500" height="1500" viewBox="0 0 1500 1500"><rect width="1500" height="1500" x="0" y="0" id="background" stroke="transparent" fill="#ffffff"></rect><svg xml:space="preserve" width="1000" height="1000" data-version="2" data-id="lg_XVw56SfCztKbpqodeD" viewBox="0 0 254 282" x="250" y="250"><rect width="100%" height="100%" fill="transparent"></rect><g fill="#edebe4" stroke="#4c2600" stroke-width="2" paint-order="stroke"><path stroke-width="4.94" d="m165.974 26.588-1.26-.321-1.235-.198h-.494a225.4 225.4 0 0 0-23.79-2.075 41.725 41.725 0 0 0-6.695-6.744c.222.963 3.879 5.632 4.052 6.695H121.58a26.754 26.754 0 0 0-7.214-7.61c-.173 0 4.546 7.783 4.546 7.783s-4.94.617-7.238.864a65.194 65.194 0 0 0-8.35 1.532c-2.866-2.125-4.62-7.411-7.412-9.882.643 2.99 3.237 7.412 3.607 10.895a89.676 89.676 0 0 0-14.328 5.78c-3.706-3.112-5.064-7.905-9.437-11.487l6.25 13.167a98.075 98.075 0 0 0-11.092 6.917c-1.359-.568-10.104-14.155-11.092-14.377a133.797 133.797 0 0 0 7.016 15.02c-5.386.74-9.363.84-14.328 1.877-1.112-.667-2.298-4.94-5.88-8.572 3.236 6.448 2.866 8.671 2.866 8.671s-16.23 2.47-22.95 4.94c4.051 0 17.292-2 23.987-2.815.173 3.31-3.73 8.25-3.557 8.25a19.047 19.047 0 0 0 6.2-8.077h11.34a113.175 113.175 0 0 0-4.941 4.347c-.247.198-.47.445-.717.668A88.934 88.934 0 0 0 44.035 70.14c-9.066-2.248-10.746-4.027-29.941-15.514A98.816 98.816 0 0 1 93.27 7.961c45.208-2.026 65.021 11.957 72.482 18.405Z"></path><path stroke-width="4.94" d="m64.515 46.82-4.941 4.348a113.175 113.175 0 0 1 4.94-4.347Z"></path><path stroke-width="4.94" d="m212.59 38.001-23.765.692c-1.828 1.902-.815 3.113-1.433 4.768-6.15 1.951-6.25 6.25-7.608 11.413a9.165 9.165 0 0 1-1.68 3.483 8.251 8.251 0 0 0-5.163-1.383 21.32 21.32 0 0 0-5.584.79c0-3.73.94-11.808 1.087-13.019a.692.692 0 0 0 0-.148h.667c2.125-.47 8.597-1.976 7.412-3.483a2.47 2.47 0 0 0-1.26-.173 40.617 40.617 0 0 0-7.14 1.433c-.84-.519-9.14-5.608-14.032-6.497a105.313 105.313 0 0 1 10.475 7.954c-3.162 1.285-7.065 2.965-11.76 5.09h-.296c-4.743-3.385-9.017-9.536-20.504-14.107 5.731 5.139 14.18 10.673 17.293 15.564l-.223.272q-4.94 2.223-10.82 5.089a29.645 29.645 0 0 0-3.31 1.433c-.939-.322-13.612-13.069-25.865-20.11 0 0 19.54 18.9 22.629 21.864q-5.707 2.816-12.352 6.15a73.074 73.074 0 0 0-33.252-20.281c5.41 2.15 26.038 16.527 29.225 21.838q-.914.79-1.853 1.482a361.426 361.426 0 0 0-9.313 4.941l-4.941 2.718A68.776 68.776 0 0 0 70.27 56.38c0 .148 17.293 11.487 20.06 14.822 1.111 1.384 5.657 5.682 5.187 6.448l-.148.173a320.901 320.901 0 0 0-13.315 8.004l-3.583-2.742a96.914 96.914 0 0 0-22.233-10.77c4.669 2.815 20.603 12.722 23.271 15.118-4.94 3.31-9.536 6.497-13.538 9.585-3.73-2.1-15.094-8.226-20.208-8.4 3.632.643 16.898 8.919 18.158 9.882a46.246 46.246 0 0 0-4.323 3.335l-.198.173-6.028 5.312a74.408 74.408 0 0 0-12.352-4.521c.297.395 8.894 4.94 10.277 6.373C38.526 121.6 35.66 130.888 35.66 130.888c-.197.445-.32.717-.345.816l.518-.742a119.543 119.543 0 0 1 15.218-17.885 70.308 70.308 0 0 1 2.915 12.352l-.692-14.502q4.768-4.62 11.438-9.881c.544 8.029 1.754 21.394 1.779 20.998a130.758 130.758 0 0 0 .37-22.678c4.027-3.137 8.005-5.978 13.143-9.388.964 7.758 1.976 26.038 1.976 26.038a113.56 113.56 0 0 0 .223-27.47c4.1-2.668 9.881-6.275 14.822-9.042 2.223 9.585 5.09 21.814 4.57 32.362 1.606-8.325-.247-26.68-2.025-33.449a7.411 7.411 0 0 1 .864-.667 71.548 71.548 0 0 1 4.743-2.47q5.658-2.99 10.846-5.658a116.405 116.405 0 0 1 3.186 30.51 102.373 102.373 0 0 0 0-32.115c5.163-2.619 9.882-4.941 14.304-7.165.963 5.83 2.693 21.221 3.236 28.855-1.68 1.21-3.458 2.47-5.336 3.607a107.24 107.24 0 0 0-29.274 27.866 163.046 163.046 0 0 1-25.322 8.275c-30.262 6.967-41.453 9.684-47.456 9.684.173-5.187 6.3-36.734 8.078-45.603 8.103-37.822 48.247-63.218 74.557-66.133 40.045-4.471 74.359 5.855 77.644 6.324 4.941 2.47 16.552-1.16 23.321-2.47 1.334 4.274 1.087 6.744-.37 6.744Z"></path><path stroke-width="4.94" d="M154.091 71.623a59.018 59.018 0 0 1-16.329 17.293c-1.087-5.657-.395-21.171-1.976-29.447 5.237-2.47 9.881-4.743 14.007-6.645 1.408 2.865 3.26 13.216 4.298 18.8Zm11.66-25.79v12.08l-.345.494a13.785 13.785 0 0 0-8.696 7.609 33.054 33.054 0 0 1-1.952 4.422 181.994 181.994 0 0 0-1.976-18.874c4.94-2.248 9.733-4.398 12.97-5.732Z"></path><ellipse rx="2.86" ry="2.34" transform="translate(204.49 72.46)scale(2.4704)"></ellipse><ellipse rx="2.25" ry="1.91" transform="translate(219.06 79.33)scale(2.4704)"></ellipse><ellipse rx="1.99" ry="2.86" transform="rotate(-85 200.58 -10.13)scale(2.4704)"></ellipse><ellipse rx="1.65" ry="2.43" transform="rotate(-85 159.44 -77.96)scale(2.4704)"></ellipse><ellipse rx="1.65" ry="3.56" transform="rotate(-85 147.12 -70.87)scale(2.4704)"></ellipse><ellipse rx="2.6" ry="3.73" transform="rotate(-79 172.5 -85.45)scale(2.4703)"></ellipse><ellipse rx="2.69" ry="4.25" transform="rotate(-87 150.39 -59.96)scale(2.4703)"></ellipse><path stroke-width="4.94" d="M211.998 110.384c-.643 3.854-5.361 6.645-11.364 6.423-6.003-.222-10.722-3.631-10.722-7.411 0-8.152 4.941-4.496 11.142-4.274 6.2.222 12.006-1.803 10.944 5.262Zm.197 13.513c-.642 3.212-5.78 5.558-12.648 5.36-6.868-.197-12.006-3.21-12.006-6.645 0-6.867 5.36-3.853 12.203-3.433 6.843.42 13.785-1.063 12.451 4.718Zm1.507 11.982c-.42 3.211-5.78 6.225-13.068 6.645-7.288.42-13.291-2.15-13.711-5.36-.865-6.869 5.558-4.275 12.846-4.72 7.288-.444 14.575-2.544 13.933 3.435Zm-1.062 12.895c-.222 3.631-5.139 7.288-12.352 7.93-7.214.642-13.069-1.507-13.71-5.138-1.285-7.412 5.138-5.139 12.203-6.004 7.065-.864 14.081-3.236 13.859 3.212Zm-1.087 13.266c-.222 3.632-5.139 7.288-12.352 7.93-7.214.642-13.069-1.507-13.71-5.138-1.285-7.412 5.138-5.139 12.203-6.003 7.238-.445 14.081-3.237 13.859 3.211Zm-4.916 14.13c0 3.632-3.854 7.066-9.215 7.708-5.36.643-10.079-1.927-10.721-5.46-1.285-7.41 3.853-4.94 9.214-5.558s10.5-3.335 10.722 3.31Z"></path><ellipse rx="2.17" ry="3.73" transform="rotate(-79 180.73 -78.88)scale(2.4703)"></ellipse><ellipse rx="2.17" ry="3.38" transform="rotate(-79 189.44 -73.89)scale(2.4703)"></ellipse><ellipse rx="2.08" ry="2.95" transform="rotate(-79 203.16 -57.93)scale(2.4703)"></ellipse><ellipse rx="2.6" ry="2.95" transform="rotate(-79 196.78 -65.83)scale(2.4703)"></ellipse><ellipse rx="2.34" ry="2.95" transform="rotate(-57 262.44 -118.48)scale(2.4704)"></ellipse><ellipse rx="2.95" ry="2.34" transform="rotate(-17 616.86 -516.55)scale(2.4704)"></ellipse><ellipse rx="3.56" ry="2.34" transform="rotate(-17 571.11 -524.15)scale(2.4704)"></ellipse><ellipse rx="3.56" ry="2.34" transform="rotate(-17 525.9 -530.15)scale(2.4704)"></ellipse><ellipse rx="3.21" ry="2.43" transform="rotate(-36 251.3 -227.4)scale(2.4704)"></ellipse><ellipse rx="2.43" ry="1.91" transform="rotate(-36 231.66 -240.32)scale(2.4704)"></ellipse><ellipse rx="2.43" ry="1.91" transform="rotate(-36 218.06 -254.27)scale(2.4704)"></ellipse><ellipse rx="2.95" ry="1.91" transform="rotate(-17 484.15 -540.76)scale(2.4704)"></ellipse><ellipse rx="1.82" ry="2.52" transform="rotate(-42 328.02 -147.9)scale(2.4703)"></ellipse><circle r="2.08" transform="rotate(-57 271.27 -109.12)scale(2.4704)"></circle><circle r="2.08" transform="rotate(-57 275.09 -97.36)scale(2.4704)"></circle><circle r="2.08" transform="rotate(-57 245.97 -80.22)scale(2.4704)"></circle><path stroke-width="4.94" d="M94.95 211.102c-5.36 3.632-11.561-.222-3.854-21.418a272.56 272.56 0 0 1 39.28-70.085c10.499-13.711 33.202-33.647 33.202-33.647a97.556 97.556 0 0 0-13.291 68.8s-34.71 42.195-55.337 56.35Z"></path><path stroke-width="4.94" d="M159.502 185.385s-1.927-5.78-5.139-13.068a64.008 64.008 0 0 1-4.298-13.661s-22.703 26.359-34.586 38.34a100.076 100.076 0 0 1-22.505 17.293c37.822.025 66.528-28.904 66.528-28.904Z"></path><path stroke-width="4.94" d="m164.121 192.87-3.335-5.558s-7.707 6.646-10.919 8.795c-3.631 2.47-16.058 8.794-16.058 8.794 13.489-4.743 30.312-12.03 30.312-12.03Zm69.517-131.103c.42-3.212-2.989-22.061-21.22-18.43a21.616 21.616 0 0 1 2.791-9.634c3.854-7.411 6.645-11.562-2.15-13.489-8.794-1.927-8.151 2.47-8.151 12.846a21.344 21.344 0 0 1-2.47 9.882c-7.709-.642-19.295 0-20.357 10.5-1.803 16.674-35.648 40.662-29.225 97.802 4.496 41.207 31.275 67.763 46.715 67.763 12.847 0 37.699-22.925 47.556-76.26 6.867-37.057-14.576-71.988-13.489-80.98Zm4.595 73.692c-3.952 40.49-23.666 71.567-44.245 69.64-20.578-1.927-33.844-36.438-29.867-76.928 3.978-40.49 23.79-71.642 44.146-69.64 20.356 2 33.944 36.438 29.966 76.928Z"></path><path stroke-width="4.94" d="M162.07 83.185c5.782-6.226 11.562-16.922 14.131-20.579 2.792-4.273-13.71-2.989-16.502 4.497-2.989 8.374-10.054 18.429-26.557 28.928-16.502 10.5-27.001 23.568-38.785 42.417-11.784 18.849-6.645 53.558-6.645 53.558 27.668-70.036 52.52-85.673 74.359-108.821Z"></path></g><path fill="#4c2600" d="M16.955 277.71 5.805 265.5l10.33-11.59h2.93l-11.19 10.64 12.14 13.16Zm-14.69 0v-23.8h2.31v23.8Z"></path><rect width="17.75" height="23.8" x="-8.88" y="-11.9" fill="none" rx="0" ry="0" transform="translate(11.64 266.31)"></rect><path fill="#4c2600" d="m21.135 277.71 9.15-23.8h2.11l9.14 23.8h-2.48l-4.22-11.15h-7.71l-3.51 11.15Zm9.39-22.03-3.17 10.06h7.18l-3.81-10.06Z"></path><rect width="20.4" height="23.8" x="-10.2" y="-11.9" fill="none" rx="0" ry="0" transform="translate(31.84 266.31)"></rect><path fill="#4c2600" d="m61.295 277.71-11.16-12.21 10.34-11.59h2.92l-11.18 10.64 12.14 13.16Zm-14.69 0v-23.8h2.31v23.8Z"></path><rect width="17.75" height="23.8" x="-8.88" y="-11.9" fill="none" rx="0" ry="0" transform="translate(55.98 266.31)"></rect><path fill="#4c2600" d="m65.475 277.71 9.14-23.8h2.11l9.15 23.8h-2.48l-4.22-11.15h-7.72l-3.5 11.15Zm9.38-22.03-3.16 10.06h7.17l-3.8-10.06Z"></path><rect width="20.4" height="23.8" x="-10.2" y="-11.9" fill="none" rx="0" ry="0" transform="translate(76.17 266.31)"></rect><path fill="#4c2600" d="M88.895 265.81q0-2.62.94-4.88.93-2.26 2.62-3.94 1.68-1.69 3.94-2.62 2.26-.94 4.88-.94t4.88.94q2.26.93 3.94 2.62 1.69 1.68 2.62 3.94.94 2.26.94 4.88t-.94 4.88q-.93 2.26-2.62 3.94-1.68 1.68-3.94 2.62-2.26.93-4.88.93t-4.88-.93q-2.26-.94-3.94-2.62-1.69-1.68-2.62-3.94-.94-2.26-.94-4.88m2.59 0q0 3.47 1.22 6.07 1.23 2.6 3.44 4.04 2.21 1.45 5.13 1.45t5.13-1.45q2.21-1.44 3.44-4.06 1.22-2.62 1.22-6.05 0-3.44-1.22-6.04-1.23-2.6-3.44-4.06-2.21-1.46-5.13-1.46t-5.12 1.44q-2.19 1.45-3.43 4.05-1.24 2.6-1.24 6.07"></path><rect width="24.76" height="24.75" x="-12.38" y="-12.38" fill="none" rx="0" ry="0" transform="translate(101.78 266.3)"></rect><path fill="#4c2600" d="M129.085 277.71v-23.8h4.73q3.67 0 5.71 1.53t2.04 4.25q0 2-1.19 3.42-1.19 1.41-3.33 1.92v.2q2.92.37 4.57 2.02 1.65 1.65 1.65 4.17 0 2.96-2.28 4.62-2.28 1.67-6.39 1.67Zm4.76-22.99h-2.45v10.2h2.42q5.37 0 5.37-5.1t-5.34-5.1m.75 11.02h-3.2v11.15h3.2q6.22 0 6.22-5.57 0-5.58-6.22-5.58"></path><rect width="14.18" height="23.8" x="-7.09" y="-11.9" fill="none" rx="0" ry="0" transform="translate(136.68 266.31)"></rect><path fill="#4c2600" d="m146.085 277.71 9.15-23.8h2.11l9.14 23.8h-2.48l-4.22-11.15h-7.71l-3.51 11.15Zm9.39-22.03-3.17 10.06h7.18l-3.81-10.06Z"></path><rect width="20.4" height="23.8" x="-10.2" y="-11.9" fill="none" rx="0" ry="0" transform="translate(156.78 266.31)"></rect><path fill="#4c2600" d="M171.555 253.91h2.31v23.12q.65 0 2.04-.21l5.64-.85v1.74h-9.99Z"></path><rect width="9.99" height="23.8" x="-5" y="-11.9" fill="none" rx="0" ry="0" transform="translate(177.05 266.31)"></rect><path fill="#4c2600" d="m201.475 277.71-11.15-12.21 10.33-11.59h2.93l-11.19 10.64 12.14 13.16Zm-14.69 0v-23.8h2.31v23.8Z"></path><rect width="17.75" height="23.8" x="-8.88" y="-11.9" fill="none" rx="0" ry="0" transform="translate(196.16 266.31)"></rect><path fill="#4c2600" d="m205.655 277.71 9.15-23.8h2.1l9.15 23.8h-2.48l-4.22-11.15h-7.72l-3.5 11.15Zm9.38-22.03-3.16 10.06h7.18l-3.81-10.06Z"></path><rect width="20.4" height="23.8" x="-10.2" y="-11.9" fill="none" rx="0" ry="0" transform="translate(216.35 266.31)"></rect><path fill="#4c2600" d="m230.615 277.71.85-24.28h.4l17.11 20.67h.2l-.75-20.19h2.31l-.85 24.27h-.4l-17.11-20.67h-.2l.75 20.2Z"></path><rect width="20.12" height="24.75" x="-10.06" y="-12.38" fill="none" rx="0" ry="0" transform="translate(241.18 266.3)"></rect></svg></svg>